Coordinates
version=1
nRows=8
nColumns=63
inDegrees=yes

Units are S.I. units (second, meters, Newtons, ...)
If the header above contains a line with 'inDegrees', this indicates whether rotational values are in degrees (yes) or radians (no).

endheader
time	pelvis_tilt	pelvis_list	pelvis_rotation	pelvis_tx	pelvis_ty	pelvis_tz	hip_flexion_r	hip_adduction_r	hip_rotation_r	knee_angle_r	knee_angle_r_beta	ankle_angle_r	subtalar_angle_r	mtp_angle_r	hip_flexion_l	hip_adduction_l	hip_rotation_l	knee_angle_l	knee_angle_l_beta	ankle_angle_l	subtalar_angle_l	mtp_angle_l	L5_S1_Flex_Ext	L5_S1_Lat_Bending	L5_S1_axial_rotation	L4_L5_Flex_Ext	L4_L5_Lat_Bending	L4_L5_axial_rotation	L3_L4_Flex_Ext	L3_L4_Lat_Bending	L3_L4_axial_rotation	L2_L3_Flex_Ext	L2_L3_Lat_Bending	L2_L3_axial_rotation	L1_L2_Flex_Ext	L1_L2_Lat_Bending	L1_L2_axial_rotation	L1_T12_Flex_Ext	L1_T12_Lat_Bending	L1_T12_axial_rotation	Abs_r3	Abs_r2	Abs_r1	Abs_t1	Abs_t2	neck_flexion	neck_bending	neck_rotation	arm_flex_r	arm_add_r	arm_rot_r	elbow_flex_r	pro_sup_r	wrist_flex_r	wrist_dev_r	arm_flex_l	arm_add_l	arm_rot_l	elbow_flex_l	pro_sup_l	wrist_flex_l	wrist_dev_l
4.361702	0.865207	-2.999400	121.060007	0.437307	0.885795	0.895507	-5.645477	5.925035	-10.759005	4.421143	0.077164	22.802184	-15.932314	0.000000	-0.648254	-4.047164	12.417545	10.046607	0.175346	30.306852	4.001431	0.000000	-0.102859	0.023388	0.620607	-0.191019	0.031106	0.659395	-0.168986	0.056865	0.659395	-0.117557	0.056865	0.543031	-0.095514	0.047693	0.504243	-0.058773	0.036228	0.465455	-0.734709	0.264569	3.451629	0.000000	0.000000	27.347132	1.670733	-5.960714	14.048422	-14.544511	15.340191	31.751400	73.097047	-13.574780	3.537641	-1.526794	-25.198437	-3.352037	33.722634	79.493859	-14.515496	-4.025110
4.382979	0.791444	-2.984017	121.064074	0.436727	0.884252	0.894908	-5.526446	5.798938	-10.697326	4.961996	0.086603	23.555408	-15.890800	0.000000	-0.709259	-3.918759	12.881348	10.128118	0.176769	30.791020	3.556571	0.000000	-0.106722	0.032612	0.471389	-0.198194	0.043373	0.500850	-0.175334	0.079292	0.500850	-0.121973	0.079292	0.412465	-0.099102	0.066501	0.383003	-0.060981	0.050515	0.353542	-0.762307	0.368908	2.621723	0.000000	0.000000	27.496309	1.566077	-5.032053	12.752951	-12.225129	31.873326	28.547165	66.030392	-12.689296	2.064108	-0.672994	-22.085304	13.671548	28.965627	73.437457	-15.796336	-3.876579
4.404255	0.767809	-2.947760	120.990164	0.436194	0.882755	0.894432	-5.369673	5.722904	-10.592647	5.542915	0.096742	24.359798	-15.872960	0.000000	-0.753955	-3.844205	13.389149	10.224410	0.178450	31.340650	3.087605	0.000000	-0.111375	0.048527	0.344405	-0.206834	0.064541	0.365931	-0.182978	0.117988	0.365931	-0.127290	0.117988	0.301355	-0.103423	0.098956	0.279829	-0.063640	0.075168	0.258304	-0.795539	0.548946	1.915480	0.000000	0.000000	27.615266	1.445607	-4.153096	11.676003	-10.082694	49.973740	25.003084	58.154859	-11.453154	0.556720	0.371796	-18.966412	32.182017	24.202422	64.512197	-16.358690	-3.771031
4.425532	0.788922	-2.886430	120.805995	0.435793	0.881387	0.894119	-5.188077	5.695424	-10.428355	6.138548	0.107138	25.172363	-15.867921	0.000000	-0.801951	-3.811359	14.075885	10.315973	0.180048	31.877655	2.368633	0.000000	-0.118268	0.069708	0.238388	-0.219636	0.092712	0.253287	-0.194303	0.169488	0.253287	-0.135169	0.169488	0.208589	-0.109824	0.142148	0.193690	-0.067578	0.107978	0.178791	-0.844779	0.788550	1.325841	0.000000	0.000000	27.693569	1.322240	-3.352434	10.843742	-8.172220	69.082256	21.235926	49.584756	-10.092935	-0.916242	1.456985	-15.964129	51.274096	19.608015	52.882470	-16.079384	-3.646686
4.446809	0.838648	-2.808165	120.529420	0.435601	0.880183	0.894031	-4.994978	5.703761	-10.251777	6.699566	0.116929	25.956592	-15.845620	0.000000	-0.832909	-3.819841	14.770008	10.423053	0.181917	32.426503	1.680352	0.000000	-0.128590	0.091626	0.148599	-0.238805	0.121863	0.157886	-0.211261	0.222780	0.157886	-0.146966	0.222780	0.130024	-0.119409	0.186844	0.120737	-0.073476	0.141929	0.111449	-0.918507	1.036494	0.826463	0.000000	0.000000	27.741987	1.249026	-2.706362	10.228756	-6.482707	88.488771	17.455090	40.496345	-8.629532	-2.222866	2.548880	-13.210472	70.361146	15.163885	40.537132	-15.046029	-3.896195
4.468085	0.931042	-2.704814	120.066210	0.435728	0.879155	0.894210	-4.807125	5.759487	-9.939275	7.196966	0.125611	26.657155	-15.851049	0.000000	-0.874035	-3.876891	15.479049	10.529384	0.183772	32.935485	0.869523	0.000000	-0.143737	0.115327	0.095326	-0.266934	0.153384	0.101284	-0.236146	0.280405	0.101284	-0.164277	0.280405	0.083410	-0.133474	0.235174	0.077452	-0.082131	0.178641	0.071494	-1.026700	1.304597	0.530174	0.000000	0.000000	27.762883	1.145320	-2.340640	9.816182	-5.061890	107.370796	13.821435	31.644888	-7.400574	-3.318932	3.644682	-10.719987	88.181901	11.024134	31.401512	-14.362592	-4.678196
4.489362	1.053852	-2.608867	119.475577	0.436157	0.878262	0.894705	-4.591307	5.840783	-9.572575	7.652006	0.133553	27.274856	-15.854828	0.000000	-0.895782	-3.959185	16.224927	10.627894	0.185492	33.341544	-0.061191	0.000000	-0.159953	0.137233	0.059593	-0.297050	0.182520	0.063317	-0.262787	0.333669	0.063317	-0.182811	0.333669	0.052144	-0.148533	0.279846	0.048419	-0.091397	0.212574	0.044695	-1.142531	1.552410	0.331437	0.000000	0.000000	27.765439	1.081778	-2.168678	9.609164	-3.903377	125.406184	10.484598	23.444134	-6.553650	-4.029629	4.660522	-8.615991	104.526702	7.358859	22.820551	-13.574150	-5.494012
4.510638	1.220817	-2.502584	118.699439	0.436949	0.877504	0.895489	-4.388668	5.965937	-9.056279	8.022466	0.140018	27.769935	-15.881413	0.000000	-0.923685	-4.088819	16.906964	10.730890	0.187289	33.648018	-1.091398	0.000000	-0.179081	0.158972	0.062271	-0.332572	0.211433	0.066162	-0.294213	0.386524	0.066162	-0.204672	0.386524	0.054487	-0.166295	0.324175	0.050595	-0.102327	0.246247	0.046703	-1.279160	1.798322	0.346330	0.000000	0.000000	27.744783	0.964574	-2.337209	9.561250	-3.049575	141.909999	7.567000	16.300585	-6.141578	-4.409270	5.602361	-6.940487	119.025895	4.297956	15.050747	-12.953874	-6.196326
